# xmcd
#
# Track frame offsets:
#	150
#	12072
#	20910
#	33919
#	44037
#	54562
#	64601
#	75497
#	87019
#	96727
#
# Disc length: 1426 seconds
# Revision: 0
# Processed by: cddbd v1.5.1PL0 Copyright (c) Steve Scherf et al.
# Submitted via: cdrLabel 7.1
#
DISCID=7b05900a
DTITLE=Crystal Gayle - I Cried The Blue Right Out Of My Eyes
DYEAR=1900
DGENRE=
TTITLE0=I've Cried The Blue Right Out Of My Eyes
TTITLE1=Sparklin' Look Of Love
TTITLE2=Too Far
TTITLE3=Everybody Oughta Cry
TTITLE4=Mama It's Different This Time
TTITLE5=Touching Me Again
TTITLE6=Clock On The Wall
TTITLE7=Show Me How
TTITLE8=M.R.S. Degree
TTITLE9=I Hope You're Havin' Better Luck Than Me
EXTD=
EXTT0=
EXTT1=
EXTT2=
EXTT3=
EXTT4=
EXTT5=
EXTT6=
EXTT7=
EXTT8=
EXTT9=
PLAYORDER=
